<svg width="220" height="200" viewBox="0 0 220 200" fill="none" xmlns="http://www.w3.org/2000/svg">
  <rect width="220" height="200" rx="26" fill="#F7FBFA"/>
  <circle cx="102" cy="78" r="44" fill="#9FD9D4"/>
  <path d="M74 74C74 58 87 45 103 45C119 45 132 58 132 74V110H74V74Z" fill="#FDF8EE"/>
  <circle cx="92" cy="74" r="5" fill="#1C1915"/>
  <circle cx="112" cy="74" r="5" fill="#1C1915"/>
  <path d="M91 90C94 94 98 97 102 97C106 97 110 94 113 90" stroke="#0F766E" stroke-width="4" stroke-linecap="round"/>
  <path d="M151 67H168V106H151L135 122V51L151 67Z" fill="#FFE19E" stroke="#B45309" stroke-width="3" stroke-linejoin="round"/>
  <circle cx="159" cy="86" r="10" fill="#B45309"/>
  <path d="M160 47C166 55 170 62 170 69C170 82 160 92 148 92" stroke="#B45309" stroke-width="3" stroke-linecap="round"/>
  <path d="M52 140C73 140 88 132 101 118" stroke="#0F766E" stroke-width="4" stroke-linecap="round" opacity="0.45"/>
  <text x="110" y="182" text-anchor="middle" font-family="Aptos, Segoe UI, sans-serif" font-size="17" font-weight="700" fill="#285F5A">The Lantern</text>
</svg>
