<svg width="220" height="200" viewBox="0 0 220 200" fill="none" xmlns="http://www.w3.org/2000/svg">
  <rect width="220" height="200" rx="26" fill="#FFF9EE"/>
  <circle cx="110" cy="78" r="44" fill="#F6C773"/>
  <path d="M82 74C82 58 95 45 111 45C127 45 140 58 140 74V110H82V74Z" fill="#FDF8EE"/>
  <circle cx="100" cy="74" r="5" fill="#1C1915"/>
  <circle cx="120" cy="74" r="5" fill="#1C1915"/>
  <path d="M99 90C102 95 106 97 110 97C114 97 118 95 121 90" stroke="#B45309" stroke-width="4" stroke-linecap="round"/>
  <path d="M52 132C74 112 89 104 98 104C107 104 121 112 145 132" stroke="#0F766E" stroke-width="5" stroke-linecap="round"/>
  <path d="M42 146C71 122 92 112 105 112C118 112 139 122 168 146" stroke="#0F766E" stroke-width="3" stroke-linecap="round" opacity="0.7"/>
  <path d="M64 154C82 136 95 128 103 128C111 128 124 136 142 154" stroke="#B45309" stroke-width="4" stroke-linecap="round"/>
  <text x="110" y="182" text-anchor="middle" font-family="Aptos, Segoe UI, sans-serif" font-size="17" font-weight="700" fill="#6D4D22">The Weaver</text>
</svg>
