<svg width="240" height="220" viewBox="0 0 240 220" fill="none" xmlns="http://www.w3.org/2000/svg">
  <rect width="240" height="220" rx="24" fill="#09141A"/>
  <path d="M37 128C50 95 73 69 108 53C139 39 171 36 204 42C188 74 164 97 133 114C104 129 72 134 37 128Z" fill="#162731"/>
  <path d="M53 140C78 134 103 133 126 135C153 138 177 145 199 157C176 169 149 175 120 176C91 176 69 165 53 140Z" fill="#0F1E26"/>
  <circle cx="108" cy="102" r="31" fill="#10242D"/>
  <circle cx="108" cy="102" r="22" fill="#1FE3FF" fill-opacity="0.82"/>
  <circle cx="108" cy="102" r="11" fill="#08131A"/>
  <circle cx="113" cy="97" r="3" fill="#E2FFFF"/>
  <path d="M170 77H187V118H170L154 134V61L170 77Z" fill="#E7D29A" stroke="#A27A3E" stroke-width="3" stroke-linejoin="round"/>
  <circle cx="178" cy="97" r="9" fill="#B9EFFF"/>
  <circle cx="178" cy="97" r="5" fill="#0A151C"/>
  <path d="M186 64C193 73 196 80 196 88C196 102 186 112 173 112" stroke="#E7D29A" stroke-width="3" stroke-linecap="round"/>
  <text x="120" y="210" text-anchor="middle" font-family="Aptos, Segoe UI, sans-serif" font-size="16" font-weight="700" fill="#D4DFE8">The Lantern</text>
</svg>
