<svg width="240" height="220" viewBox="0 0 240 220" fill="none" xmlns="http://www.w3.org/2000/svg">
  <rect width="240" height="220" rx="24" fill="#0A151C"/>
  <path d="M41 128C53 96 74 71 106 54C137 38 171 35 202 42C186 71 164 93 133 109C105 124 74 130 41 128Z" fill="#172732"/>
  <path d="M52 137C78 131 101 131 125 133C153 136 177 142 199 155C175 166 149 172 119 173C92 174 71 164 52 137Z" fill="#101E26"/>
  <circle cx="107" cy="103" r="31" fill="#10242D"/>
  <circle cx="107" cy="103" r="22" fill="#1BE2FF" fill-opacity="0.85"/>
  <circle cx="107" cy="103" r="11" fill="#08131A"/>
  <circle cx="112" cy="98" r="3" fill="#D8FFFF"/>
  <rect x="45" y="155" width="150" height="18" rx="8" fill="#5E6A75"/>
  <rect x="57" y="166" width="126" height="24" rx="6" fill="#D7B56C"/>
  <path d="M69 166H171V190H69V166Z" fill="#F5E3B7"/>
  <path d="M120 166V190" stroke="#96703A" stroke-width="2"/>
  <text x="120" y="210" text-anchor="middle" font-family="Aptos, Segoe UI, sans-serif" font-size="16" font-weight="700" fill="#C7D7E4">The Archivist</text>
</svg>
