<svg width="900" height="640" viewBox="0 0 900 640" fill="none" xmlns="http://www.w3.org/2000/svg">
  <rect width="900" height="640" rx="36" fill="#08131A"/>
  <rect width="900" height="640" rx="36" fill="url(#mist)"/>
  <g opacity="0.28">
    <path d="M0 520C106 468 211 474 323 487C430 499 539 523 642 500C744 477 824 430 900 372V640H0V520Z" fill="#173228"/>
    <path d="M0 560C117 512 204 514 301 533C402 553 519 584 644 559C753 538 832 494 900 447V640H0V560Z" fill="#0F241C"/>
  </g>
  <g opacity="0.22" stroke="#7AE2FF" stroke-width="2">
    <path d="M555 154C625 191 676 260 706 354"/>
    <path d="M529 131C608 167 670 232 724 316"/>
    <path d="M500 113C586 145 665 199 742 274"/>
  </g>
  <g>
    <path d="M56 420C105 312 170 219 270 158C352 109 444 98 552 124C633 143 710 187 782 255L701 309C650 286 600 271 548 264C474 254 404 266 344 297C277 333 227 389 181 474L56 420Z" fill="#0B171D"/>
    <path d="M85 396C130 299 191 223 284 170C360 126 444 118 545 141C615 157 685 194 748 255L688 295C636 271 588 256 539 248C467 236 402 247 346 276C284 308 238 359 198 433L85 396Z" fill="#101F27"/>
    <path d="M113 385C150 306 208 239 295 190C369 149 448 141 541 162C607 177 666 209 721 262L660 294C613 276 571 266 528 260C462 250 404 258 354 283C295 312 254 357 219 420L113 385Z" fill="#182A35"/>
  </g>
  <g>
    <path d="M135 375C165 331 202 288 244 257C308 210 378 189 463 193C529 196 590 214 665 251L661 255C611 300 554 335 486 356C428 373 368 379 308 380C248 381 194 380 135 375Z" fill="#1C2D38"/>
    <path d="M104 415C224 390 338 383 449 387C575 392 683 412 793 460C823 473 839 491 840 516C841 540 824 556 787 560C670 572 543 572 414 559C306 548 208 530 110 500C79 490 61 473 60 453C59 436 74 423 104 415Z" fill="#0D171D"/>
    <path d="M138 414C254 398 367 392 472 398C579 404 676 418 770 448C793 455 806 466 807 480C808 494 796 506 771 509C669 522 559 523 444 514C335 505 241 490 149 464C125 457 113 446 113 434C113 425 121 418 138 414Z" fill="#101D26"/>
    <path d="M601 323C650 316 713 322 783 353C805 363 808 377 790 392C736 435 664 462 571 476L528 386C554 374 579 349 601 323Z" fill="#B8C7D8"/>
    <path d="M624 330C670 327 716 337 763 358C778 364 780 372 767 382C725 415 669 437 599 452L567 386C588 376 608 357 624 330Z" fill="#DBE6F1"/>
    <path d="M638 338C673 338 708 345 742 359C751 363 753 368 745 374C714 396 675 413 627 425L604 384C618 373 629 357 638 338Z" fill="#F1F7FD"/>
  </g>
  <g>
    <circle cx="332" cy="307" r="118" fill="#071118"/>
    <circle cx="332" cy="307" r="103" fill="#12212A" stroke="#233B46" stroke-width="4"/>
    <circle cx="332" cy="307" r="78" fill="#102730"/>
    <circle cx="332" cy="307" r="67" fill="#0ED0FF" fill-opacity="0.25"/>
    <circle cx="332" cy="307" r="56" fill="#1FE3FF" fill-opacity="0.82"/>
    <path d="M332 246C349 246 364 251 378 261C388 274 392 287 392 304C390 320 383 333 371 344C358 352 343 357 327 357C310 355 297 348 286 336C275 324 270 311 270 295C272 279 279 266 292 257C304 249 317 245 332 246Z" fill="#0D2F39"/>
    <path d="M391 304L372 293C365 287 359 280 354 270L352 249C369 253 380 264 388 281C391 289 392 297 391 304Z" fill="#B5F9FF"/>
    <path d="M351 249L349 270C345 279 339 286 332 292L313 302C313 285 318 272 326 261C333 254 341 250 351 249Z" fill="#D2FDFF"/>
    <path d="M313 302L332 310C339 315 345 322 350 331L352 352C335 348 323 338 316 321C313 314 312 308 313 302Z" fill="#A8F4FF"/>
    <path d="M352 352L354 331C358 322 364 315 371 309L390 299C390 316 385 329 377 340C370 347 362 351 352 352Z" fill="#D8FFFF"/>
    <circle cx="332" cy="307" r="18" fill="#071118"/>
    <circle cx="332" cy="307" r="8" fill="#021014"/>
    <circle cx="340" cy="299" r="4" fill="#CFFFFF"/>
    <circle cx="332" cy="307" r="96" stroke="#3C5E6E" stroke-opacity="0.4" stroke-width="10"/>
  </g>
  <path d="M464 206L575 226" stroke="#DDE7F2" stroke-width="4" stroke-linecap="round" opacity="0.38"/>
  <path d="M439 182L543 193" stroke="#DDE7F2" stroke-width="3" stroke-linecap="round" opacity="0.18"/>
  <defs>
    <linearGradient id="mist" x1="450" y1="0" x2="450" y2="640" gradientUnits="userSpaceOnUse">
      <stop stop-color="#0C1820"/>
      <stop offset="1" stop-color="#050B11"/>
    </linearGradient>
  </defs>
</svg>
